<?xml version="1.0" encoding="UTF-8" standalone="no"?>
<svg width="16px" height="16px" viewBox="0 0 16 16" version="1.1" xmlns="http://www.w3.org/2000/svg" xmlns:xlink="http://www.w3.org/1999/xlink">
    <!-- Generator: Sketch 3.8.3 (29802) - http://www.bohemiancoding.com/sketch -->
    <title>checked</title>
    <desc>Created with Sketch.</desc>
    <defs></defs>
    <g id="Page-1" stroke="none" stroke-width="1" fill="none" fill-rule="evenodd">
        <g id="All-Projects" transform="translate(-1179.000000, -378.000000)">
            <g id="body" transform="translate(70.000000, 90.000000)">
                <g id="table" transform="translate(0.000000, 128.000000)">
                    <g id="#-3" transform="translate(0.000000, 144.000000)">
                        <g id="checked" transform="translate(1109.000000, 16.000000)">
                            <g>
                                <path d="M14,0 L2,0 C0.8955,0 0,0.895 0,2 L0,14 C0,15.105 0.8955,16 2,16 L14,16 C15.1045,16 16,15.105 16,14 L16,2 C16,0.895 15.1045,0 14,0 L14,0 Z" fill="#0E8EC8"></path>
                                <polygon id="Rectangle-path" fill="#FFFFFF" transform="translate(5.013710, 8.882390) rotate(45.000000) translate(-5.013710, -8.882390) " points="1.71374165 7.88239959 8.31367835 7.88239959 8.31367835 9.88238041 1.71374165 9.88238041"></polygon>
                                <rect id="Rectangle-path" fill="#FFFFFF" transform="translate(9.586400, 7.561320) rotate(45.000000) translate(-9.586400, -7.561320) " x="8.58640959" y="3.36136028" width="1.99998082" height="8.39991944"></rect>
                            </g>
                        </g>
                    </g>
                </g>
            </g>
        </g>
    </g>
</svg>