<svg
 xmlns="http://www.w3.org/2000/svg"
 xmlns:xlink="http://www.w3.org/1999/xlink"
 width="0.282cm" height="0.529cm">
<path fill-rule="evenodd"  fill="rgb(255, 255, 255)"
 d="M2.109,3.558 C2.109,3.903 2.122,5.593 2.122,5.593 L0.569,5.593 L0.569,7.759 L2.109,7.756 L2.122,14.616 L5.228,14.616 L5.228,7.759 L7.217,7.756 C7.217,7.756 7.368,6.803 7.460,5.593 C7.194,5.593 5.228,5.593 5.228,5.593 C5.228,5.593 5.178,4.094 5.178,3.858 C5.178,3.621 5.511,3.305 5.840,3.305 C6.169,3.305 6.863,3.305 7.506,3.305 C7.506,2.991 7.506,1.904 7.506,0.900 C6.648,0.900 5.672,0.900 5.241,0.900 C2.034,0.900 2.109,3.212 2.109,3.558 Z"/>
</svg>