<?xml version="1.0" encoding="utf-8"?>
<!-- Generator: Adobe Illustrator 19.1.0, SVG Export Plug-In . SVG Version: 6.00 Build 0)  -->
<svg version="1.1" id="Слой_1" xmlns="http://www.w3.org/2000/svg" xmlns:xlink="http://www.w3.org/1999/xlink" x="0px" y="0px"
	 viewBox="0 0 514 113" style="enable-background:new 0 0 514 113;" xml:space="preserve">
<style type="text/css">
	.st0{fill:#121212;}
	.st1{fill:#EC1E24;}
</style>
<g>
	<path class="st0" d="M117.2,31.8c5.1,0,10.1,1.1,14.4,3.1v7.5c-3.6-2.3-8.4-3.5-13.3-3.5c-9.3,0-18.7,5.1-18.7,17.5
		c0,13.6,9.9,17.6,18.5,17.6c2.6,0,5.2-0.5,7.1-1.4v-18h7.5v23.2c-4.6,2-9.9,3.2-15.2,3.2c-13.2,0-26-6.9-26-24.7
		C91.6,39.7,104.4,31.8,117.2,31.8z"/>
	<path class="st0" d="M151.6,46.7c13,0,17.5,10.5,15.4,19.9h-24.5c0.8,5.8,6.5,8.3,12.5,8.3c3.9,0,7.5-1,10.3-2.3v6.3
		c-3,1.4-7.1,2.2-11.7,2.2c-10,0-18.5-5.7-18.5-17.2C135,52.1,144,46.7,151.6,46.7z M151.9,52.8c-4.9,0-9.3,2.9-9.6,8.4h18.1
		C160.8,58.3,159,52.8,151.9,52.8z"/>
	<path class="st0" d="M179.8,36v11.6h11.8V54h-11.8v14.9c0,4.3,2,5.7,6.2,5.7c2.4,0,4.6-0.5,6.6-1.3v6.3c-2.4,0.9-5.6,1.4-8.8,1.4
		c-6.3,0-11.2-3.1-11.2-10.7V54h-5.8v-6.4h5.8v-9.9L179.8,36z"/>
	<path class="st0" d="M245.8,32.7v47.6H238V46.9l-15,22.6h-4.6l-15-22.6v33.4h-7.7V32.7h7l18.1,27.2l18.1-27.2H245.8z"/>
	<path class="st0" d="M264.9,46.7c9.2,0,17.7,5.9,17.7,17.2s-8.5,17.2-17.7,17.2c-9.1,0-17.7-5.9-17.7-17.2S255.8,46.7,264.9,46.7z
		 M264.9,53.4c-6.1,0-10.3,4.1-10.3,10.5c0,6.4,4.2,10.5,10.3,10.5c6,0,10.3-4.1,10.3-10.5C275.2,57.5,271,53.4,264.9,53.4z"/>
	<path class="st0" d="M304.4,46.9v7.1c-5.8-0.8-10.9,1.8-12.9,6.4v19.8h-7.3V47.6h6.5V53C293.2,49,298.5,46.4,304.4,46.9z"/>
	<path class="st0" d="M319,46.7c13,0,17.5,10.5,15.4,19.9h-24.5c0.8,5.8,6.5,8.3,12.5,8.3c3.9,0,7.5-1,10.3-2.3v6.3
		c-3,1.4-7.1,2.2-11.7,2.2c-10,0-18.5-5.7-18.5-17.2C302.4,52.1,311.4,46.7,319,46.7z M319.3,52.8c-4.9,0-9.3,2.9-9.6,8.4h18.1
		C328.2,58.3,326.4,52.8,319.3,52.8z"/>
	<path class="st0" d="M341.9,32.7v45.9H371v1.6h-30.8V32.7H341.9z"/>
	<path class="st0" d="M384.7,46.9c12,0,15.8,10.3,14.5,17.9h-28.8c0.3,10.3,8,14.5,16.3,14.5c3.7,0,7.7-1,10.5-2.6v1.6
		c-2.8,1.6-6.8,2.4-10.7,2.4c-9.2,0-17.7-5-17.7-17C368.8,53,376.6,46.9,384.7,46.9z M384.7,48.4c-7.4,0-14.1,5.2-14.3,14.9h27.4
		C398.4,57.1,395.2,48.4,384.7,48.4z"/>
	<path class="st0" d="M432.1,78.8c0.9,0,1.7-0.1,2.5-0.5v1.4c-0.9,0.3-1.8,0.5-2.9,0.5c-2.4,0-4.8-1.2-4.8-4.8v-2.4
		c-3.1,5-8.8,7.8-14.7,7.8c-5.5,0-11.1-2.9-11.1-9.3c0-7.5,7.1-10.3,14-10.3c4.2,0,8.2,0.8,11.8,2v-3.5c0-6.9-4-11.4-11.8-11.4
		c-4.9,0-9,1.1-11.6,2v-1.6c2.5-0.9,6.5-1.9,11.6-1.9c8.6,0,13.3,5,13.3,13v15.5C428.5,78,430.2,78.8,432.1,78.8z M412.4,79.5
		c5.8,0,11.6-2.9,14.5-8.6v-6c-3.5-1.2-7.5-2-11.7-2c-6.3,0-12.5,2.2-12.5,8.7C402.7,77,407.6,79.5,412.4,79.5z"/>
	<path class="st0" d="M465.5,32.7v47.6H464v-8.5c-2.6,5.2-8.1,9.2-14.9,9.2c-9.2,0-16.2-6.5-16.2-17c0-10.5,6.9-17,16.2-17
		c6.9,0,12.3,4,14.8,9V32.7H465.5z M449.2,48.4c-8.3,0-14.7,5.8-14.7,15.5c0,9.6,6.3,15.5,14.7,15.5c7.1,0,12.6-4.7,14.7-10.5V59
		C461.8,53.1,456.3,48.4,449.2,48.4z"/>
	<path class="st0" d="M480.8,46.9c4.1,0,8.3,1.2,11.1,2.8v1.6c-2.7-1.7-7.1-2.9-11-2.9c-4.8,0-9.8,1.9-9.8,6.7
		c0,10.7,22.6,5.4,22.6,17.4c0,6-5.8,8.4-12.2,8.4c-4.3,0-9.5-1.3-12.4-3.3V76c3.2,2.1,8.2,3.4,12.4,3.4c5.6,0,10.6-2,10.6-6.8
		c0-10.6-22.7-5.2-22.7-17.4C469.4,49.2,475.3,46.9,480.8,46.9z"/>
</g>
<circle class="st1" cx="30.8" cy="71.7" r="9.9"/>
<circle class="st1" cx="50.1" cy="41.8" r="9.9"/>
<circle class="st1" cx="68.3" cy="71.7" r="9.9"/>
</svg>
