<?xml version="1.0" encoding="UTF-8" standalone="no"?>
<svg width="16px" height="16px" viewBox="0 0 16 16" version="1.1" xmlns="http://www.w3.org/2000/svg" xmlns:xlink="http://www.w3.org/1999/xlink">
    <!-- Generator: Sketch 3.8.3 (29802) - http://www.bohemiancoding.com/sketch -->
    <title>unchecked</title>
    <desc>Created with Sketch.</desc>
    <defs></defs>
    <g id="Page-1" stroke="none" stroke-width="1" fill="none" fill-rule="evenodd">
        <g id="All-Projects" transform="translate(-1179.000000, -282.000000)" fill="#9A9A9A">
            <g id="body" transform="translate(70.000000, 90.000000)">
                <g id="table" transform="translate(0.000000, 128.000000)">
                    <g id="#-1" transform="translate(0.000000, 48.000000)">
                        <g id="unchecked" transform="translate(1109.000000, 16.000000)">
                            <path d="M15,14 C15,14.55 14.552,15 14,15 L2,15 C1.448,15 1,14.55 1,14 L1,2 C1,1.45 1.448,1 2,1 L14,1 C14.552,1 15,1.45 15,2 L15,14 L15,14 Z M14,0 L2,0 C0.8955,0 0,0.895 0,2 L0,14 C0,15.105 0.8955,16 2,16 L14,16 C15.1045,16 16,15.105 16,14 L16,2 C16,0.895 15.1045,0 14,0 L14,0 Z"></path>
                        </g>
                    </g>
                </g>
            </g>
        </g>
    </g>
</svg>