<svg
 xmlns="http://www.w3.org/2000/svg"
 xmlns:xlink="http://www.w3.org/1999/xlink"
 width="0.706cm" height="0.459cm">
<defs>
<filter id="Filter_0">
    <feFlood flood-color="rgb(255, 255, 255)" flood-opacity="1" result="floodOut" />
    <feComposite operator="atop" in="floodOut" in2="SourceGraphic" result="compOut" />
    <feBlend mode="normal" in="compOut" in2="SourceGraphic" />
</filter>

</defs>
<g filter="url(#Filter_0)">
<path fill-rule="evenodd"  fill="rgb(255, 255, 255)"
 d="M9.788,11.949 L10.983,11.949 C10.983,11.949 11.344,11.906 11.529,11.697 C11.699,11.505 11.693,11.146 11.693,11.146 C11.693,11.146 11.670,9.458 12.414,9.209 C13.149,8.964 14.091,10.840 15.090,11.561 C15.846,12.107 16.420,11.988 16.420,11.988 L19.091,11.949 C19.091,11.949 20.489,11.857 19.826,10.702 C19.772,10.608 19.440,9.847 17.840,8.285 C16.164,6.650 16.389,6.915 18.407,4.086 C19.636,2.364 20.127,1.313 19.973,0.861 C19.827,0.433 18.923,0.546 18.923,0.546 L15.915,0.566 C15.915,0.566 15.692,0.533 15.527,0.638 C15.365,0.740 15.262,0.977 15.262,0.977 C15.262,0.977 14.785,2.310 14.150,3.444 C12.811,5.836 12.276,5.962 12.057,5.814 C11.547,5.467 11.675,4.423 11.675,3.680 C11.675,1.364 12.009,0.397 11.024,0.146 C10.697,0.063 10.456,0.008 9.620,-0.001 C8.546,-0.013 7.638,0.003 7.124,0.267 C6.781,0.445 6.517,0.837 6.678,0.859 C6.877,0.887 7.327,0.987 7.566,1.329 C7.874,1.770 7.863,2.760 7.863,2.760 C7.863,2.760 8.041,5.489 7.450,5.828 C7.045,6.060 6.488,5.585 5.294,3.416 C4.682,2.305 4.220,1.075 4.220,1.075 C4.220,1.075 4.131,0.845 3.972,0.724 C3.780,0.574 3.510,0.528 3.510,0.528 L0.652,0.546 C0.652,0.546 0.223,0.559 0.066,0.755 C-0.075,0.930 0.054,1.291 0.054,1.291 C0.054,1.291 2.292,6.796 4.826,9.571 C7.149,12.115 9.788,11.949 9.788,11.949 Z"/>
</g>
</svg>