<svg
 xmlns="http://www.w3.org/2000/svg"
 xmlns:xlink="http://www.w3.org/1999/xlink"
 width="1.411cm" height="1.235cm">
<defs>
<filter filterUnits="userSpaceOnUse" id="Filter_0" x="0px" y="0px" width="40px" height="35px"  >
    <feOffset in="SourceAlpha" dx="0" dy="4" />
    <feGaussianBlur result="blurOut" stdDeviation="3.464" />
    <feFlood flood-color="rgb(0, 0, 0)" result="floodOut" />
    <feComposite operator="atop" in="floodOut" in2="blurOut" />
    <feComponentTransfer><feFuncA type="linear" slope="0.25"/></feComponentTransfer>
    <feMerge>
    <feMergeNode/>
    <feMergeNode in="SourceGraphic"/>
  </feMerge>
</filter>
<linearGradient id="PSgrad_0" x1="0%" x2="0%" y1="100%" y2="0%">
  <stop offset="0%" stop-color="rgb(235,235,235)" stop-opacity="1" />
  <stop offset="46%" stop-color="rgb(240,240,240)" stop-opacity="1" />
  <stop offset="100%" stop-color="rgb(244,244,244)" stop-opacity="1" />
</linearGradient>

</defs>
<g filter="url(#Filter_0)">
<path fill-rule="evenodd"  fill="rgb(255, 255, 255)"
 d="M27.830,16.404 C27.830,16.404 27.664,17.581 27.154,18.097 C26.508,18.778 25.783,18.782 25.451,18.821 C23.072,18.993 19.500,18.998 19.500,18.998 C19.500,18.998 15.080,18.958 13.720,18.827 C13.342,18.756 12.492,18.778 11.845,18.097 C11.336,17.581 11.170,16.404 11.170,16.404 C11.170,16.404 11.000,15.023 11.000,13.644 L11.000,12.349 C11.000,10.968 11.170,9.588 11.170,9.588 C11.170,9.588 11.336,8.411 11.845,7.894 C12.492,7.215 13.216,7.211 13.549,7.170 C15.928,6.998 19.496,6.998 19.496,6.998 L19.504,6.998 C19.504,6.998 23.072,6.998 25.451,7.170 C25.783,7.211 26.508,7.215 27.154,7.894 C27.664,8.411 27.830,9.588 27.830,9.588 C27.830,9.588 28.000,10.968 28.000,12.349 L28.000,13.644 C28.000,15.023 27.830,16.404 27.830,16.404 ZM17.725,10.559 L17.725,15.364 L22.237,12.912 L17.725,10.559 Z"/>
</g>
<path fill="url(#PSgrad_0)"
 d="M27.830,16.404 C27.830,16.404 27.664,17.581 27.154,18.097 C26.508,18.778 25.783,18.782 25.451,18.821 C23.072,18.993 19.500,18.998 19.500,18.998 C19.500,18.998 15.080,18.958 13.720,18.827 C13.342,18.756 12.492,18.778 11.845,18.097 C11.336,17.581 11.170,16.404 11.170,16.404 C11.170,16.404 11.000,15.023 11.000,13.644 L11.000,12.349 C11.000,10.968 11.170,9.588 11.170,9.588 C11.170,9.588 11.336,8.411 11.845,7.894 C12.492,7.215 13.216,7.211 13.549,7.170 C15.928,6.998 19.496,6.998 19.496,6.998 L19.504,6.998 C19.504,6.998 23.072,6.998 25.451,7.170 C25.783,7.211 26.508,7.215 27.154,7.894 C27.664,8.411 27.830,9.588 27.830,9.588 C27.830,9.588 28.000,10.968 28.000,12.349 L28.000,13.644 C28.000,15.023 27.830,16.404 27.830,16.404 ZM17.725,10.559 L17.725,15.364 L22.237,12.912 L17.725,10.559 Z"/>
</svg>